<?xml version="1.0" standalone="no"?>
<!DOCTYPE svg PUBLIC "-//W3C//DTD SVG 1.1//EN" "http://www.w3.org/Graphics/SVG/1.1/DTD/svg11.dtd" >
<svg xmlns="http://www.w3.org/2000/svg" xmlns:xlink="http://www.w3.org/1999/xlink" version="1.1" viewBox="0 -64 2030 1024">
  <g transform="matrix(1 0 0 -1 0 960)">
   <path fill="currentColor"
d="M715 951h-697l-18 -256h26q14 139 46 180t158 41h34h27q20 0 23.5 -12t3.5 -32v-592q0 -26 -14.5 -39.5t-100.5 -13.5h-53v-35h102.5h109.5h109.5h102.5v35h-36q-86 0 -100 13.5t-14 39.5v592q0 20 2 28.5t15 15.5h28h34q126 0 158 -41t45 -180h27l-18 256v0zM1315 227
h-26q-20 -132 -61 -194t-186 -62h-150q-40 0 -46.5 9t-6.5 35v301h97q79 0 101 -30t22 -103h27v300h-27q0 -73 -18.5 -102.5t-104.5 -29.5h-97v274q0 26 6.5 35t46.5 9h141q132 0 169.5 -51t51.5 -170h26l-35 256h-627v-35h26q67 0 78 -10t11 -43v-592q0 -33 -11 -43
t-78 -10h-26v-35h653l44 291v0zM1660 625l158 229q20 27 54.5 49t113.5 22v35h-273v-35q33 0 51.5 -16.5t18.5 -36.5q0 -7 -1 -13.5t-8 -13.5l-132 -194l-150 221l-4.5 5.5t-4.5 11.5q0 14 19 25t52 11v35h-81h-87h-72h-78v-35h18q46 0 69 -8t36 -28l212 -317l-185 -274
q-13 -20 -47.5 -45.5t-120.5 -25.5v-35h283v35q-40 0 -55.5 20t-15.5 33q0 7 1 13.5t8 13.5l159 238l176 -274q0 -6 4.5 -7l4.5 -1q0 -14 -18.5 -25t-51.5 -11v-35h80h87h72h78v35h-17q-47 0 -66.5 9t-39.5 35l-247 354v0z" />
  </g>

</svg>
