<?xml version="1.0" standalone="no"?>
<!DOCTYPE svg PUBLIC "-//W3C//DTD SVG 1.1//EN" "http://www.w3.org/Graphics/SVG/1.1/DTD/svg11.dtd" >
<svg xmlns="http://www.w3.org/2000/svg" xmlns:xlink="http://www.w3.org/1999/xlink" version="1.1" viewBox="0 -64 2022 1024">
  <g transform="matrix(1 0 0 -1 0 960)">
   <path fill="currentColor"
d="M0 951v-35q79 0 101.5 -9t22.5 -62v-803q0 -53 -22.5 -62t-101.5 -9v-35h512q70 0 126.5 23t97.5 61t63 87.5t22 102.5q0 49 -22 94t-60 80t-89.5 56.5t-111.5 25.5q53 10 97 32t75.5 53.5t49 70.5t17.5 82q0 46 -22.5 90.5t-63 79.5t-97.5 56t-126 21h-468v0zM212 483
v380q0 40 7.5 51t54.5 11h185q53 0 92.5 -19.5t66 -50t40 -68.5t13.5 -74q0 -43 -16.5 -84.5t-48 -73.5t-77.5 -52t-105 -20h-212v0zM274 -20q-47 0 -54.5 11t-7.5 51v415h274q56 0 97.5 -22.5t68.5 -58t40.5 -79.5t13.5 -87q0 -40 -15 -82t-45.5 -77t-77 -57.5
t-109.5 -22.5h-185v9zM1103 598q0 46 18 58.5t97 12.5v35q-40 -7 -90.5 -8t-77.5 -1q-26 0 -77 1t-90 8v-35q79 0 92.5 -12.5t13.5 -58.5v-547q0 -47 -16.5 -59t-89.5 -12v-35h86.5h80.5h77.5h90.5v35q-79 0 -97 12t-18 59v547v0zM1306 704v-35q73 0 89.5 -12.5t16.5 -58.5
v-547q0 -47 -16.5 -59t-89.5 -12v-35h451q63 0 112 16.5t83 45t52 65t18 76.5q0 36 -17.5 68.5t-47 58t-70 43t-86.5 24.5q79 13 132 61.5t53 115.5q0 36 -19 69.5t-53.5 59t-83.5 41t-109 15.5h-415v0zM1501 351v247q0 46 11 54t50 8h142q99 0 129 -62t30 -88
q0 -40 -37.5 -99.5t-157.5 -59.5h-167v0zM1501 324h220q93 0 130.5 -65t37.5 -111q0 -53 -43 -110.5t-142 -57.5h-142q-39 0 -50 11t-11 51v282v0z" />
  </g>

</svg>
