<?xml version="1.0" standalone="no"?>
<!DOCTYPE svg PUBLIC "-//W3C//DTD SVG 1.1//EN" "http://www.w3.org/Graphics/SVG/1.1/DTD/svg11.dtd" >
<svg xmlns="http://www.w3.org/2000/svg" xmlns:xlink="http://www.w3.org/1999/xlink" version="1.1" viewBox="0 -64 1024 1024">
  <g transform="matrix(1 0 0 -1 0 960)">
   <path fill="currentColor"
d="M402 826q-10 0 -19.5 -2t-17.5 -7q-30 -17 -42 -70t1 -127q1 -7 2.5 -14.5t3.5 -14.5q-10 -3 -19.5 -6t-17.5 -7q-67 -24 -104.5 -59t-37.5 -69t40 -71.5t110 -62.5q7 -3 15 -5.5t16 -4.5q-2 -10 -4 -19l-4 -18q-12 -70 -1 -121.5t40 -68.5q31 -18 83.5 -0.5t111.5 67.5
q5 4 10 8.5t10 9.5q4 -4 9 -8.5t10 -8.5q58 -50 111 -67.5t83 0.5q30 17 40.5 68t-1.5 122q-1 9 -3 18.5t-5 18.5q7 2 13 4t12 5q73 25 114.5 62t41.5 72t-39 69.5t-107 59.5q-7 3 -15.5 6t-16.5 5q1 8 3 15.5t3 14.5q13 73 0.5 126t-42.5 71q-29 17 -78 1.5t-103 -60.5
q-8 -6 -15.5 -12.5t-14.5 -14.5q-8 8 -15.5 14.5t-15.5 13.5q-40 33 -77.5 50t-67.5 17v0zM407 791q24 0 57.5 -17t70.5 -51q4 -4 8.5 -8t9.5 -9q-19 -19 -37 -41t-35 -46q-31 -3 -61 -8t-57 -11q-1 3 -1.5 6.5t-1.5 7.5q-15 65 -8 111t31 60q5 3 11 4.5t13 1.5v0zM748 790
q6 0 12 -1.5t11 -4.5q24 -13 31 -59t-7 -112q-1 -3 -2 -6.5t-2 -7.5q-27 7 -56.5 11.5t-60.5 7.5q-17 25 -35 47t-37 41q5 5 9.5 9t8.5 8q37 33 70 50.5t58 16.5v0zM577 680q12 -13 24 -27.5t24 -30.5q-12 0 -24 0.5t-24 0.5t-24 -0.5t-23 -0.5q12 16 24 30.5t23 27.5v0z
M576 585q20 0 39.5 -0.5t37.5 -2.5q11 -15 21.5 -31.5t20.5 -34.5q10 -17 19 -34.5t18 -35.5q-8 -16 -17 -33t-19 -33q-10 -17 -20 -33l-20 -32q-19 -1 -39.5 -2t-40.5 -1t-39 1l-38 2q-10 15 -20.5 31.5t-19.5 33.5q-10 17 -19 33.5t-17 32.5q8 17 17.5 34.5t19.5 35.5
q10 17 20.5 34t21.5 33q18 1 36.5 1.5t37.5 0.5v0v0zM453 578q-6 -11 -13 -21.5t-13 -22.5q-7 -11 -13 -22l-12 -22q-8 19 -15.5 38t-13.5 37q19 4 39 7.5t41 5.5v0zM702 578q21 -3 41 -6.5t38 -7.5q-6 -18 -13 -36.5t-16 -37.5q-5 11 -11.5 22t-12.5 23q-6 11 -13 21.5
t-13 21.5v0zM339 557q8 -27 19 -54t24 -55q-13 -28 -23 -55.5t-18 -53.5l-8 2t-8 3q-64 20 -100.5 49t-36.5 56t34 54.5t95 46.5q5 2 11 3.5t11 3.5v0zM815 556q4 -2 8.5 -3t8.5 -2q61 -20 96.5 -47.5t35.5 -54.5t-37.5 -56t-103.5 -50q-3 0 -5 -1t-5 -1q-7 25 -17.5 52
t-22.5 55q13 27 23.5 54.5t18.5 53.5v0zM577 526q-16 0 -29.5 -6t-24.5 -17q-11 -10 -16.5 -24t-5.5 -29t5.5 -29t16.5 -25t24.5 -16.5t29.5 -5.5q15 0 29 5.5t24 16.5q11 11 16.5 25t5.5 29t-5.5 29t-16.5 24q-10 11 -24 17t-29 6v0zM404 404q5 -11 11 -21.5t12 -21.5
q7 -11 13.5 -21.5t12.5 -20.5q-20 2 -39.5 5t-37.5 6q6 18 13 36.5t15 37.5v0zM751 404q8 -19 14.5 -37t12.5 -35q-18 -4 -37 -7t-39 -5q6 10 12.5 20t12.5 21t12 21.5t12 21.5v0zM788 298l2 -10t3 -10q13 -63 7 -107.5t-29 -57.5q-24 -14 -68 4t-94 65l-3.5 3.5l-3.5 3.5
q19 20 37.5 43t36.5 49q30 2 58 6.5t54 10.5v0zM367 297q26 -6 54 -10t58 -7q18 -25 36.5 -48t37.5 -43q-2 -2 -3.5 -4t-3.5 -3q-50 -47 -94 -65.5t-69 -4.5q-23 14 -29 58t8 107l2 10t3 10v0zM629 277q-12 -17 -25 -33t-27 -30q-13 14 -26 30t-25 33q12 0 25 -0.5t26 -0.5
t26 0.5t26 0.5v0z" />
  </g>

</svg>
