<?xml version="1.0" standalone="no"?>
<!DOCTYPE svg PUBLIC "-//W3C//DTD SVG 1.1//EN" "http://www.w3.org/Graphics/SVG/1.1/DTD/svg11.dtd" >
<svg xmlns="http://www.w3.org/2000/svg" xmlns:xlink="http://www.w3.org/1999/xlink" version="1.1" viewBox="0 -64 1024 1024">
  <g transform="matrix(1 0 0 -1 0 960)">
   <path fill="currentColor"
d="M209 840q-18 0 -34 -6.5t-28 -19.5q-13 -13 -19.5 -28.5t-6.5 -33.5v-608q0 -18 6.5 -33.5t19.5 -28.5q12 -13 28 -19.5t34 -6.5h608q19 0 34.5 6.5t28.5 19.5t19.5 28.5t6.5 33.5v608q0 18 -6.5 33.5t-19.5 28.5t-28.5 19.5t-34.5 6.5h-608v0zM209 793h608q9 0 16 -3
t14 -9q6 -5 9 -12.5t3 -16.5v-608q0 -9 -3 -16.5t-9 -12.5q-7 -6 -14 -9t-16 -3h-608q-9 0 -16 3t-13 9q-6 5 -9 12.5t-3 16.5v608q0 9 3 16.5t9 12.5q6 6 13 9t16 3v0zM501 419h-4.5h-4.5q-17 -1 -30 -7t-24 -16q-10 -10 -15 -23t-5 -29q0 -23 10.5 -41t31.5 -31
q5 -3 14 -7.5t22 -9.5q15 -6 24.5 -11.5t13.5 -9.5q6 -6 7 -13.5t-2 -14.5q-1 -2 -2.5 -4t-2.5 -3q-6 -6 -13.5 -8.5t-17.5 -2.5q-17 0 -30 7.5t-23 21.5q-1 3 -2 4l-1 1l-6 -3t-16 -9q-11 -7 -17 -10.5l-6 -3.5q-1 0 0 -1.5t2 -3.5q13 -22 33 -35t48 -16q9 -2 18.5 -2
t18.5 2q17 2 30.5 8t23.5 15q11 10 16 23.5t5 30.5q0 11 -2 20t-6 17q-2 5 -5.5 10t-7.5 9q-8 8 -23 17t-36 18q-15 6 -24.5 11t-12.5 9q-4 4 -5.5 8.5t-0.5 10.5q0 4 1.5 8t3.5 6q4 5 9.5 7t12.5 2q8 0 14 -3t11 -8q3 -2 5 -4t3 -4q1 -3 2 -4l1 -1q1 0 6.5 4t16.5 10
l15 10.5l5 3.5l-1 2l-3 6q-5 7 -10.5 13t-12.5 10q-8 6 -19 9.5t-24 4.5h-4.5h-4.5v0zM614 418l73 -136l-78 -143h55l54 96l54 -96h55l-78 143l72 136h-55l-48 -89l-48 89h-56v0zM314 416v-202l-2 -5q-1 -4 -2.5 -7.5t-4.5 -6.5t-8.5 -4.5t-12.5 -1.5q-6 0 -10.5 1t-7.5 4
q-4 2 -8 7t-8 11q-1 3 -2 4l-1 1l-6 -3.5t-17 -10.5l-23 -14l2 -2q8 -17 20.5 -27.5t28.5 -16.5q19 -6 37 -5.5t36 7.5q19 8 30.5 24t14.5 40v28.5v77.5v101h-56v0z" />
  </g>

</svg>
