<?xml version="1.0" standalone="no"?>
<!DOCTYPE svg PUBLIC "-//W3C//DTD SVG 1.1//EN" "http://www.w3.org/Graphics/SVG/1.1/DTD/svg11.dtd" >
<svg xmlns="http://www.w3.org/2000/svg" xmlns:xlink="http://www.w3.org/1999/xlink" version="1.1" viewBox="0 -64 1024 1024">
  <g transform="matrix(1 0 0 -1 0 960)">
   <path fill="currentColor"
d="M512 470l169 169h-339l170 -169v0zM141 840l171 -170h371l-171 170h-371v0zM719 634l184 -185l-185 -185l-185 184l186 186v0zM904 492v348h-349l349 -348v0zM490 448l-370 371v-741l370 370v0zM739 242l165 -164v329l-165 -165v0zM512 427l-371 -371h741l-370 371v0z
" />
  </g>

</svg>
