<?xml version="1.0" standalone="no"?>
<!DOCTYPE svg PUBLIC "-//W3C//DTD SVG 1.1//EN" "http://www.w3.org/Graphics/SVG/1.1/DTD/svg11.dtd" >
<svg xmlns="http://www.w3.org/2000/svg" xmlns:xlink="http://www.w3.org/1999/xlink" version="1.1" viewBox="0 -64 1024 1024">
  <g transform="matrix(1 0 0 -1 0 960)">
   <path fill="currentColor"
d="M293 319q-23 0 -40 6.5t-29 20.5q-12 13 -18 32t-6 44q0 26 6 45.5t19 32.5q12 14 30 21t42 7q15 0 29.5 -3t27.5 -9l-13 -34q-14 5 -25 7.5t-20 2.5q-26 0 -39 -17t-13 -52q0 -17 3 -29.5t10 -21.5q6 -8 16 -12.5t22 -4.5q14 0 27.5 3.5t26.5 10.5v-37q-6 -4 -12 -6
l-12 -4q-7 -1 -15 -2t-17 -1v0zM467 323h-42v283h42v-283v0zM536 233q-10 0 -18 1.5t-14 3.5v34q6 -2 12.5 -3t12.5 -1q14 0 20.5 8t6.5 23v225h43v-227q0 -16 -4 -28t-12 -20t-20 -12t-27 -4v0zM554 577q0 6 1.5 10.5t4.5 7.5t7.5 4.5t10.5 1.5t10.5 -1.5t7.5 -4.5
t4.5 -7.5t1.5 -10.5q0 -5 -1.5 -9.5t-4.5 -7.5t-7.5 -4.5t-10.5 -1.5t-10.5 1.5t-7.5 4.5t-4.5 7.5t-1.5 9.5v0zM823 380q0 -15 -5 -26t-16 -19t-26.5 -12t-35.5 -4t-36 3t-28 9v37q17 -8 33.5 -12t32.5 -4q19 0 29 6t10 18q0 4 -1 7t-3 6q-2 2 -5.5 4.5t-9.5 5.5
q-5 3 -11.5 6t-15.5 6q-18 7 -29.5 14t-18.5 13q-6 7 -9 16t-3 19q0 13 5.5 23t15.5 17q11 8 25 11.5t32 3.5t34.5 -4t32.5 -11l-14 -32q-16 7 -30 10t-25 3q-17 0 -25.5 -4.5t-8.5 -14.5q0 -5 2.5 -9t6.5 -7q5 -3 14.5 -7.5t24.5 -10.5q12 -5 21 -9.5t15 -8.5q6 -3 10 -8
t7 -10q2 -5 3.5 -11.5t1.5 -13.5v0zM474 16q-83 7 -154.5 43.5t-124 94t-83 132.5t-30.5 159t30.5 158.5t83 132t124 94t154.5 43.5v48q-93 -7 -173 -47t-139.5 -104t-93.5 -147.5t-34 -178.5q0 -94 34 -177.5t93.5 -147.5t139.5 -104t173 -48v49v0zM550 921v-48
q83 -7 154.5 -43.5t124 -94t83 -132.5t30.5 -159t-30.5 -158.5t-83 -132t-124 -94t-154.5 -43.5v-49q93 8 173 48t139.5 104t93.5 147.5t34 177.5q0 95 -34 178.5t-93.5 147.5t-139.5 104t-173 47v0z" />
  </g>

</svg>
