<?xml version="1.0" standalone="no"?>
<!DOCTYPE svg PUBLIC "-//W3C//DTD SVG 1.1//EN" "http://www.w3.org/Graphics/SVG/1.1/DTD/svg11.dtd" >
<svg xmlns="http://www.w3.org/2000/svg" xmlns:xlink="http://www.w3.org/1999/xlink" version="1.1" viewBox="0 -64 1024 1024">
  <g transform="matrix(1 0 0 -1 0 960)">
   <path fill="currentColor"
d="M384 -39q-10 11 -49.5 43t-95.5 74l-122 93l-3 14q-2 10 -0.5 15t10.5 22l13 23l-9 58q-6 42 -9.5 54t-13.5 33q-8 16 -13.5 23.5t-9.5 9.5q-8 5 -14.5 15t-6.5 18q0 5 -7 16.5t-23 33.5l-30 41v30q1 27 4 40.5t12 24.5l9 11l-5 35q-3 23 -3 33t3 28q2 11 5.5 28t7.5 31
q6 20 9 27.5t9 11.5q3 3 7.5 8.5t7.5 11.5q4 9 8 11.5t10 2.5q1 0 3 1.5t4 3.5q2 3 5 4.5t4 1.5q2 0 7.5 4.5t12.5 9.5q10 10 18.5 14.5t32.5 12.5q14 5 28.5 10t20.5 7q9 3 12.5 3.5t8.5 -1.5q5 -3 10.5 -2.5t22.5 4.5q18 5 24 5t17 -4q9 -3 18.5 -3.5t29.5 0.5q30 2 44 -1
t19 -12q4 -9 12 -14.5t18 -7.5q5 -1 12 -3t11 -4q6 -3 13.5 -4.5t14.5 -1.5q13 0 18 -3.5t4 -11.5q0 -5 1.5 -7t8.5 -4q4 -1 11.5 -2t13.5 -1q10 -1 13.5 -2t5.5 -5q3 -5 0 -10t-17 -17l-15 -13l12 -6q9 -6 12 -12t-1 -11q-3 -4 -8.5 -4t-16.5 4q-5 2 -10.5 3t-8.5 1
q-5 0 -5.5 -2t1.5 -14q0 -7 2 -14.5t4 -10.5q8 -13 14.5 -20t9.5 -7q6 0 10.5 -6t5.5 -14q0 -8 2 -9t10 -1q17 2 19 -6t-11 -23q-7 -8 -8.5 -11t0.5 -7q4 -6 0.5 -14t-11.5 -9q-3 0 -7 0.5t-6 2.5q-4 2 -6 -0.5t-6 -12.5t-4 -16t2 -18q1 -10 1 -16.5t-2 -10.5q-3 -9 1 -29
t12 -35q4 -8 5.5 -13.5t0.5 -10.5q-2 -9 -10 -23t-15 -20l-8 -6l10 -10q11 -11 19.5 -16.5t12.5 -3.5q3 1 3.5 8.5t-2.5 13.5t-0.5 10.5t8.5 4.5t13.5 -9t11.5 -22q3 -13 0.5 -26t-12.5 -27q-10 -15 -22 -19.5t-38 -3.5q-21 0 -26 -1t0 -6q2 -2 3 -10t1 -17q-1 -3 -5 -8
t-11 -10q-10 -9 -16 -11t-23 -3q-10 -1 -18 -1.5l-8 -0.5q-1 0 -2 -2.5t-1 -5.5q0 -4 -4.5 -16.5t-11.5 -25.5l-17 -33l4 -22q1 -10 6 -31.5t10 -41.5q7 -27 10.5 -46t4.5 -36q0 -12 1 -23.5t2 -14.5q1 -5 -7.5 -14.5t-14.5 -9.5q-2 0 -10.5 7t-18.5 17v0v0zM419 -50l7 5
l-3 41q-2 21 -5.5 40t-9.5 41q-4 17 -9 37.5t-7 33.5l-6 30l12 21q5 9 8.5 16t3.5 8t-13.5 3t-31.5 3l-45 4l-83 53l-57 62q-23 26 -40.5 45.5t-18.5 21.5q-3 3 -9.5 2t-6.5 -4q0 -1 3.5 -9t8.5 -17q8 -16 11.5 -29.5t9.5 -53.5q7 -41 7.5 -51.5t-2.5 -16.5
q-15 -27 -18 -33.5t-1 -14.5q1 -8 12.5 -18t61.5 -48q112 -86 143.5 -111t47.5 -42q9 -9 15.5 -16t7.5 -7l2.5 1.5t4.5 2.5v0v0zM467 272q18 4 27.5 11.5t9.5 19.5v9l-19 -1q-10 -1 -16.5 -0.5t-10.5 2.5q-4 1 -8 3t-7 3q-3 2 -13 2t-26 -2q-21 -2 -31.5 -2t-24.5 3
q-48 9 -58.5 15.5t-24.5 34.5q-10 21 -10.5 32t7.5 19q6 6 7 3t-4 -10t-5 -9.5t3 -9.5q7 -12 14 -20.5t11 -8.5q2 0 4.5 -1t4.5 -3q1 -1 7.5 -2t15.5 -1q19 0 33 8t37 32q11 11 20 18.5t11 7.5q8 0 7.5 3.5t-8.5 8.5q-10 6 -11.5 13.5t4.5 18.5q5 11 6.5 11t-1.5 -12
t0.5 -14.5t14.5 2.5q6 3 12 4t14 0q6 -1 12 -0.5t9 1.5t7 0.5t9 -2.5q3 -2 10 -4t13 -2q10 -2 13.5 -0.5t11.5 8.5q11 10 11.5 19t-7.5 22q-4 5 -6 10.5t-2 9.5q0 3 -1 8.5t-2 9.5q-2 6 -2 11t2 12t2 14t-2 17q-1 8 -1.5 14.5t1.5 10.5q2 5 1.5 6t-5.5 -1q-7 -2 -16 -1
t-11 4q-2 1 -1 1.5t5 -0.5q5 0 6.5 0.5t1.5 3.5t-0.5 4.5t-1.5 1.5q-2 0 -2 1.5v3.5q1 3 0 3.5t-6 -0.5l-9 -2l-2 25q-1 10 -1 20.5t1 14.5q1 8 3 9.5t10 0.5q6 -1 9.5 0.5t7.5 5.5l7 8l-2 -10q-1 -5 -2.5 -9.5t-3.5 -7.5q-2 -2 -3 -4.5t-1 -3.5q0 -4 3.5 -1t10.5 12
q9 12 8 20t-14 26q-6 10 -9 17t-4 17q-1 18 -5 25t-14 12q-5 3 -8.5 6t-3.5 4q0 4 -13.5 12t-27.5 12q-6 2 -12.5 4.5t-10.5 4.5q-3 2 -8 3t-9 1h-9l16 -14q6 -6 10.5 -11l4.5 -5q0 -1 -2 -0.5t-5 1.5t-9 2t-11 1q-9 0 -20.5 3.5t-37.5 13.5q-8 3 -12.5 4t-5.5 0
q-1 -5 -11.5 -5.5t-18.5 3.5q-6 4 -8 4t-4 -4q-1 -2 -2.5 -3t-2.5 0t-2.5 -0.5t-1.5 -3.5q-1 -4 -4.5 -5t-12.5 -1q-12 0 -16 -2t-16 -14q-8 -9 -11.5 -14.5t-3.5 -10.5q0 -3 0.5 -6.5l0.5 -3.5q1 -1 2 -9t1 -19l1 -25l-16 -19q-7 -8 -12.5 -14t-7.5 -7q-1 -1 -7 -6.5
t-12 -12.5q-11 -13 -13 -17.5t-2 -18.5q0 -8 1 -18t3 -16q3 -10 9 -33.5t10 -41.5q1 -4 2 -13t2 -17q0 -15 -1 -18.5t-6 -8.5q-5 -3 -10.5 -4t-14.5 -1h-16v-31l58 -58q24 -24 47.5 -45.5t32.5 -27.5t24.5 -14t30.5 -14q22 -9 34 -11.5t35 -4.5q37 -3 51 -3t31 3v0v0z
M491 509q5 2 15 2.5t10 -1.5q0 -1 -4 -1.5t-10 -0.5t-9 0.5t-2 0.5v0v0zM226 602q0 1 1.5 3.5t3.5 4.5t2.5 5t-0.5 6q0 4 0.5 6t4.5 3q3 1 5 5t4 13q3 13 5.5 15.5t5.5 -6.5q2 -8 4.5 -7t3.5 10q1 4 3 7.5t3 4.5q2 0 3.5 2t1.5 4t0.5 2.5t2.5 0.5q1 -1 2 -0.5t0 2.5v3.5v4.5
q0 3 1 3t2 -3q4 -5 3.5 -0.5t-3.5 9.5q-2 4 -1.5 4.5t4.5 -1.5q2 -1 5.5 -4t4.5 -5q4 -5 4.5 -5t2.5 7q3 13 7.5 18t14.5 5q6 0 10.5 0.5t5.5 1.5t3.5 1t4.5 -2q5 -3 8.5 -2.5t1.5 4.5q-1 4 2 4t10 -4q3 -2 8 -3.5t9 -2.5q9 0 14 -3.5t9 -12.5q3 -8 5.5 -7t2.5 9q0 3 1 5
t3 2q1 0 1.5 -2t-0.5 -5q-3 -7 -2.5 -13t3.5 -25q3 -16 2.5 -21.5t-3.5 -13.5q-5 -10 -6.5 -11t-7.5 3q-3 1 -10.5 2t-15.5 1t-10.5 0.5t1.5 0.5q12 2 13.5 5t-6.5 11t-12.5 8t-5.5 -8q-1 -12 -2 -15t-4 -3t-3 1t2 3q1 1 2 3.5t1 5.5t-1 3.5t-5 -0.5h-4t-2 2q0 4 -4.5 2.5
t-5.5 -5.5q-1 -2 -3 -4.5t-5 -3.5t-4 -2.5t0 -4.5t1 -4.5t-2 -1.5q-1 0 -2.5 2.5t-1.5 5.5q-2 5 -3 5.5t-4 -1.5q-4 -4 -4 -6.5t5 -3.5q2 0 1 -0.5t-4 -1.5q-4 0 -10 -2.5t-11 -6.5l-10 -6t-8 -2q-3 0 -2 1t6 3q10 4 8.5 5.5t-12.5 -1.5q-5 -1 -10 -1t-8 1q-4 2 -5.5 1.5
t-1.5 -2.5q0 -4 -4 -4.5t-7 3.5q-2 2 -4 1.5t-4 -3.5t-3.5 -3.5t-1.5 1.5v0v0zM401 712q-1 2 -2 2t-1 -1q0 -3 2 -5t3 -1t0.5 2.5t-2.5 2.5v0v0zM373 715q-1 2 -1 1.5t-1 -3.5q0 -2 0.5 -3t1.5 0q1 0 1 2t-1 3v0v0zM315 605q-1 1 2 1.5t10 -0.5q17 -1 18.5 -2t-11.5 -1
q-6 0 -11.5 0.5t-7.5 1.5v0v0zM356 607q1 1 3.5 1t3.5 -1q2 0 0.5 -0.5t-4.5 -0.5t-4 0.5t1 0.5v0v0zM371 610q1 1 3 1t2 -1q1 -1 0 -1.5t-4 0.5q-2 0 -2.5 0.5t1.5 0.5v0v0zM389 616q10 4 13 3.5t-6 -3.5q-3 -2 -7 -3t-6 -1t0 1l6 3v0v0zM514 616q2 1 4.5 1t4.5 -1
q1 0 -0.5 -0.5t-5.5 -0.5q-3 0 -4 0.5t1 0.5v0v0zM461 647q1 1 5.5 2t9.5 1q7 0 10 -1t2 -2t-5.5 -2t-9.5 -1q-6 0 -9.5 0.5t-2.5 2.5v0v0zM438 693q0 6 -1 12t-2 8q-1 4 -0.5 4t4.5 -5q5 -5 6 -11t-2 -15q-2 -8 -3.5 -6t-1.5 13v0v0zM475 741q0 4 0.5 6.5t2.5 1.5
q1 -1 2 -3t1 -5q0 -2 -1 -4t-2 -3q-2 -1 -2.5 1t-0.5 6v0v0zM491 328q9 3 12 8t-4 7q-4 1 -11.5 -1.5t-13.5 -7.5q-2 -2 -7 -4.5t-11 -3.5l-12 -5l18 2q7 0 15.5 2t13.5 3v0v0zM107 437l8 9v33q-1 14 0 29.5t2 23.5q3 18 0.5 47.5t-8.5 42.5q-7 13 -29.5 25.5t-34.5 8.5
q-2 -1 -6.5 -5.5l-9.5 -9.5q-10 -12 -14 -26t-4 -39v-24l29 -42q15 -20 22.5 -32.5t7.5 -16.5q0 -11 8.5 -21.5t17.5 -11.5q1 0 4 2.5t7 6.5v0v0zM93 487q0 2 -3 5t-7 5q-16 8 -26 33t-7 52q1 10 0.5 13.5t-2.5 3.5q-5 0 -8 -4t-3 -11q0 -10 -3.5 -7.5t-4.5 12.5
q-1 12 5.5 22.5t16.5 10.5q9 1 18.5 -5.5t16.5 -18.5q5 -8 7 -15.5t3 -20.5l1 -22l-9 -3q-8 -3 -9 -6.5t5 -11.5q8 -9 11.5 -19.5t0.5 -13.5q-1 -2 -2 -1.5t-1 2.5v0v0zM531 636q0 3 -1 5.5t-2 2.5t-2 -2.5t-2 -5.5t0 -5t3 -2t3 2t1 5v0v0z" />
  </g>

</svg>
