<?xml version="1.0" standalone="no"?>
<!DOCTYPE svg PUBLIC "-//W3C//DTD SVG 1.1//EN" "http://www.w3.org/Graphics/SVG/1.1/DTD/svg11.dtd" >
<svg xmlns="http://www.w3.org/2000/svg" xmlns:xlink="http://www.w3.org/1999/xlink" version="1.1" viewBox="0 -64 1024 1024">
  <g transform="matrix(1 0 0 -1 0 960)">
   <path fill="currentColor"
d="M752 694q37 -51 58.5 -114t21.5 -132q0 -86 -32.5 -162t-89 -132.5t-132.5 -89t-162 -32.5t-162 32.5t-132.5 89t-89 132.5t-32.5 162t32.5 162t89 132.5t132.5 89t162 32.5q69 0 132 -21t114 -59q7 4 16 7t20 3q27 0 45.5 -18.5t18.5 -45.5q0 -10 -2.5 -19t-7.5 -17v0z
M688 176q27 27 47 57t35 65q15 36 22.5 73.5t7.5 76.5t-7.5 76.5t-22.5 73.5q-9 19 -19.5 38.5t-22.5 37.5q-6 -3 -14 -5.5t-16 -2.5q-27 0 -45.5 18.5t-18.5 45.5q0 7 2.5 15.5t5.5 14.5q-18 12 -37 22.5t-39 19.5q-36 15 -73.5 22.5t-76.5 7.5t-76.5 -7.5t-73.5 -22.5
q-34 -15 -64.5 -35t-57.5 -47t-47 -57t-35 -65q-15 -36 -22.5 -73.5t-7.5 -76.5t7.5 -76.5t22.5 -73.5q15 -34 35 -64.5t47 -57.5t57 -47t65 -35q36 -15 73.5 -22.5t76.5 -7.5t76.5 7.5t73.5 22.5q34 15 64.5 35t57.5 47v0zM224 448q0 96 48 144t144 48t144 -48t48 -144
t-48 -144t-144 -48t-144 48t-48 144v0z" />
  </g>

</svg>
