<?xml version="1.0" standalone="no"?>
<!DOCTYPE svg PUBLIC "-//W3C//DTD SVG 1.1//EN" "http://www.w3.org/Graphics/SVG/1.1/DTD/svg11.dtd" >
<svg xmlns="http://www.w3.org/2000/svg" xmlns:xlink="http://www.w3.org/1999/xlink" version="1.1" viewBox="0 -76 1024 1024">
  <g transform="matrix(1 0 0 -1 0 960)">
   <path fill="currentColor"
d="M427 144q-2 0 -3 -1q-2 -2 -7 -4q-6 -3 -7 -6l-2 -4t-2 -7q-1 -4 -2 -6t-2 -7t-3 -8q-1 -4 -1 -12v-16q0 -4 1 -7q0 -4 10 -14q8 0 10 1t12 11v8l9 56v5q0 2 -3 4q0 7 -10 7v0zM371 60q0 -3 3 -18l4 -20v0l3 -10l3 -9q-1 0 2 -10q4 -10 5 -15t2 -7q-9 12 -11 21
q-3 8 -10 25q-7 16 -7 43q-2 10 -2 31l1 14v8q0 10 10 25l6 12q11 26 49 40q-2 -1 -6 -4t-11 -8t-8 -6l-11 -11q-1 -2 -4 -6t-5 -11q-3 -7 -5 -12q-3 -5 -5 -12v-15l-3 -16v-29v0zM713 266q3 0 6 -2q3 0 4 -2q0 -2 -1 -4v-2q-3 -2 -5 -2q-2 1 -6 1h-8l-6 -18q-3 -10 -1 -20
q3 -1 10 -2q8 -1 11 -2t10 -2t10 -2h25q15 0 20 1l21 7q10 3 19 12q9 6 16 17q6 12 8 14t2 4v2h-2q-2 -2 -8 -2t-7 2q1 2 3 5q2 4 4 5t3 2l4 2t3 2t3 2q3 1 4 2v6q0 2 2 5q0 8 2 12v22q-1 -2 -2 -8t-2 -10q-1 -3 -5 -8q-5 -5 -8 -11q-4 -6 -13 -9q-5 -4 -22 -9q-16 0 -22 2
q-19 0 -27 4q-7 5 -13 7t-12 8l-20 -21q-1 -1 -2 -4t-2 -4q1 -2 4 -2v0zM688 547q0 39 8 43v2q-22 -13 -41 -30t-49 -38l-48 -36q-37 -26 -47 -32q3 -17 -4 -58v-6q6 0 6 -6v-2q7 -14 16 -21q13 -12 22 -18q18 -18 79 -43l29 -13l21 -6q3 -1 10 -4l10 -5q6 6 8 11t6 11
q4 5 5 8q5 3 8 9q2 2 4 2h4l18 -6l18 -5q6 -2 17 -2q6 -2 14 -2q29 0 50 29q4 5 5 8v3h2q8 -10 8 -14t2 -7q0 -8 2 -10v-9q1 0 3 1t4 3q1 2 3 3q7 6 10 10l7 12q4 8 6 16q0 10 -2 16q0 11 -7 26q-8 14 -17 23l-25 21l-24 16l-30 12q-15 8 -27 11t-14 5h-6q-2 1 -12 2
q-10 2 -23 15q-16 10 -22 38zM801 701l-23 15h-1l-4 -3q-14 -7 -25 -18l-21 -21q-13 -9 -22 -23q-9 -8 -17 -18q-8 -11 -19 -22q-10 -11 -13 -16q-2 -5 -11 -13v-2q3 2 10 6t10 8t17 16l96 73q2 1 10 8q7 7 13 10v0zM248 712v12q-3 9 -6 16l-9 12q-1 5 -11 13q-6 3 -11 12
l-4 4l36 -77l3 -2q2 2 2 10v0zM898 795q-3 0 -18 14q-12 7 -18 11q-7 3 -29 18l-17 6q-1 1 -3 2t-3 2h-7q11 -11 19 -16q7 -5 14 -13q6 -8 15 -10t14 -5t7 -4t6 -2q3 -1 5 -2q1 -1 4 -2t4 -3h4q3 0 5 -2h2q-4 4 -4 6v0zM285 691q0 14 -5 28q-5 13 -8 25q-2 12 -7 20
q-6 7 -8 15t-5 15q-3 6 -4 9q-1 2 -6 7q-4 5 -5 9t-4 10t-5 9q-1 3 -6 8q-4 5 -6 8q-3 0 -10 -1t-10 -2t-10 -4t-11 -4q9 -15 10 -18t4 -8t4 -7l10 -19q15 -10 32 -29t17 -35q2 -2 2 -9t-2 -9t-2 -5q-3 -3 -4 -3l45 -97q-2 6 -2 18l-4 16v53v0zM497 445q-1 0 -2 2v2q0 2 3 4
l16 16q14 13 30 26q15 12 20 17l38 31q8 9 35 30q3 6 12 19q1 4 10 18l21 24l18 25l12 10v0l13 10q18 19 21 21q2 2 7 6q5 3 9 5t10 6q7 3 8 3q-2 3 -9 8q-8 5 -11 9t-17 15q-15 12 -18 17q-3 2 -14 14q-4 -4 -13 -10q-8 -7 -12 -11q-12 -7 -24 -18l-25 -19q-9 -6 -17 -14
t-19 -15q-10 -6 -21 -15q-11 -10 -16 -13l-24 -19q-17 -12 -23 -18l-49 -38q-9 -5 -19 -13t-18 -14t-12 -10h-5q-2 2 -1 5q15 12 18 14q8 8 13 14q-2 2 -3 7q-1 4 -4 8l-35 67q-8 12 -16 30q-13 28 -20 40t-11 20l-48 93q-1 2 -2 6t-2 6l-6 9q-3 -1 -17 -3q-14 -3 -17 -4
q-4 -1 -10 -2t-9 -2l-22 -7q2 -3 6 -8t6 -9t11 -16q2 -5 10 -17q7 -13 9 -20q5 -7 9 -17t6 -18l4 -10q8 -22 10 -29q2 -6 2 -22v-38q0 -7 2 -14q0 -17 1 -22q2 -5 3 -13q1 -9 2 -12t2 -7l2 -6q2 -3 2 -10q7 -12 16 -32t11 -26q1 0 2 3q1 2 2 3l3 3q2 1 3 2h2q2 -5 2 -17
t-1 -17q-2 -5 -3 -9q-1 -5 -2 -8t-2 -10q-1 -6 -2 -9t-2 -8t-2 -9q-1 -3 -2 -8t-3 -8t-3 -15l-6 -16q-3 -18 -8 -33q-3 -16 -10 -33q-6 -17 -9 -33q-6 -15 -11 -33l-40 -129q-4 -14 -10 -33t-10 -34q-8 -20 -9 -28q-1 -7 -4 -19q-3 -11 -4 -16l19 -20q2 -2 23 -11t31 -12
q37 -11 56 -11q10 -2 25 -2t21 1q7 0 11 2q8 0 12 3q6 0 8 2q1 17 4 24q3 8 4 17t2 15l6 27q1 5 2 14t2 14q-12 -12 -18 -12t-11 6q-6 6 -6 12q-5 4 -5 19t5 27l5 15q4 10 8 12q3 2 4 3t4 2t4 2q3 3 10 1q7 -3 9 -10v-2q0 -2 2 -2l10 68q1 3 2 11q1 7 3 12t3 17v4
q-7 8 -7 21q-1 3 -4 10t-4 10l-8 21l-6 20q-1 3 -4 11q-3 7 -4 11l-6 21q-6 13 -9 22l13 -21q1 -3 4 -9t4 -9l8 -21q6 -19 7 -22t3 -11t3 -10l6 -21q3 -1 4 -4t2 -4v-9l8 39q0 16 1 20q2 4 3 11t2 10t2 9q1 5 2 9q0 10 2 14q1 4 2 9t3 10q1 5 1 16l6 23q1 7 5 24h-1h-1z
M237 956h-19q-3 -1 -8 -2q-6 -1 -10 -2q-4 -2 -10 -3t-9 -2t-9 -2t-8 -2q-3 -2 -9 -3q-7 -1 -9 -3t-3 -2q-2 0 -5 -2q2 -2 4 -2h15q5 0 8 1q14 0 19 2q4 1 10 2q5 1 9 2l17 7q6 2 12 5l8 4q2 1 4 1q1 1 4 3h-4q-2 -2 -7 -2v0zM869 256v-2q-7 -17 -13 -24t-18 -19
q-7 -9 -22 -13l-27 -8q-15 -3 -27 0q-40 0 -74 20v2q-2 0 -2 2q0 34 10 46q-14 0 -19 1q-5 2 -12 3t-12 2q-4 1 -15 4t-30 7q-19 5 -35 15t-26 15t-15 8l-13 12q-8 5 -14 13v5q-3 0 -5 2v-9q0 -4 -2 -6q-3 -18 -3 -32l-6 -34q-1 -5 -2 -16q-1 -12 -2 -17l-30 -162
q-1 -5 -2 -17q-1 -11 -2 -16l-6 -33q-4 -19 -5 -32l-7 -32q-2 -2 -2 -7q-4 -4 -21 -4l-14 -4h-16q-13 -4 -46 2l-31 6q-3 1 -29 13q-20 4 -29 11q-10 7 -12 8l-13 7q-2 1 -11 10q-6 3 -10 11v4q0 5 5 24t8 33t6 25l4 16q1 5 4 17t4 17l32 132q2 12 9 36q6 24 7 33q1 8 8 25
q7 18 10 34t5 19q1 4 2 9q1 4 2 7l6 18q1 3 2 8t2 8q1 2 2 7q1 4 2 7q0 7 2 11q-3 10 -12 26l-12 27q-8 17 -12 28l-13 25l-95 213q-1 3 -4 9q-3 5 -4 9t-4 10t-4 9q-5 -1 -12 -1l-4 -2q-13 5 -19 27q-9 18 -4 23q0 1 6 4q6 0 12 2l-8 18q0 6 4 6h2q2 0 5 -6t5 -9q3 -3 5 -8
l28 3q30 0 69 7q20 0 27 2q0 3 -3 8q-2 5 -3 8t-5 8q-3 5 -4 8l-18 -3l-39 -6q-6 -1 -19 -1l-19 -4h-31v1h-6l-2 2v1q-2 0 -4 2v2l2 2v2h2v2q3 0 10 7h4l8 7q7 0 11 2l18 6q3 1 10 2t9 2q3 1 9 2t10 3q5 1 19 1q2 2 10 2h20q2 -1 4 -1h3q0 -2 2 -2q4 -4 4 -7l5 -13
q3 -10 11 -20q4 -10 10 -20h6q14 -4 15 -17v-15h-8q0 -1 1 -2q1 -2 2 -3t2 -4t2 -4l43 -94l14 -22q1 -15 19 -47q3 -13 10 -23l22 -47l9 -23q3 -2 4 -8q0 -5 2 -7q6 5 8 9l46 40q5 3 18 15t31 24q12 15 19 20q7 4 16 12q8 8 10 9l23 20q13 12 20 17t10 8q4 3 9 7t10 10
t20 17q-2 0 -2 2q-10 18 6 21l14 4l9 -6q4 2 11 9t11 9l23 12q1 1 3 2q3 1 4 2t4 3q3 1 4 3q2 2 3 2l2 2h10q2 -2 6 -2q2 -3 4 -3q2 -1 3 -1q2 -1 4 -1q3 -1 4 -2q2 -1 5 -2q4 -2 11 -6q6 -3 11 -5q4 -2 10 -6q7 -5 21 -14q12 -9 17 -10q4 -4 5 -6q1 -1 4 -3q4 -2 9 -7
q0 -2 2 -4q2 0 4 -3v-2h2v-6h-1v-4q0 -2 -2 -2h-14q-3 0 -5 2q-3 3 -6 4t-8 1q-4 1 -6 2q-2 2 -17 11q-14 4 -18 8l-34 19q-2 2 -8 5q-7 4 -12 9q-2 0 -4 2l-31 -28l-8 -8l106 -75l21 17q1 1 4 2t5 3t7 0q0 -1 -1 -3l-2 -4q-1 -1 -2 -4t-2 -4l-13 -9l-4 -4l6 -6
q-8 -23 -23 -29l-13 -4l-9 4q-13 -13 -27 -20l-47 -39l-2 -4v-11l-4 -12v-7l-5 -7l-4 -15q-3 -15 0 -27q0 -7 4 -20l8 -8q8 -8 10 -9q7 0 13 -6h5l2 -2q11 -4 18 -5q6 -1 13 -5q6 -4 9 -5q4 -1 9 -4t8 -3q3 -1 5 -2q2 -2 5 -3q2 -2 7 -5q4 -4 14 -7l12 -13q6 -4 15 -12
l12 -13q16 -16 19 -24t7 -16t5 -28q0 -20 -10 -35q-3 -7 -24 -28l-11 -6q-2 -1 -12 -9v-10q-2 -4 -2 -12h-1z" />
  </g>

</svg>
